<?xml version="1.0" standalone="no"?>
<!DOCTYPE svg PUBLIC "-//W3C//DTD SVG 20010904//EN"
 "http://www.w3.org/TR/2001/REC-SVG-20010904/DTD/svg10.dtd">
<svg version="1.0" xmlns="http://www.w3.org/2000/svg"
 width="260.000000pt" height="260.000000pt" viewBox="0 0 260.000000 260.000000"
 preserveAspectRatio="xMidYMid meet">
<metadata>
Created by potrace 1.11, written by Peter Selinger 2001-2013
</metadata>
<g transform="translate(0.000000,260.000000) scale(0.100000,-0.100000)"
fill="#000000" stroke="none">
<path d="M1105 2546 c-562 -93 -982 -528 -1056 -1091 -14 -107 -6 -309 16
-410 54 -247 169 -459 345 -635 178 -179 390 -293 644 -347 112 -25 380 -25
492 0 508 109 882 483 991 991 25 112 25 380 0 492 -108 505 -479 878 -982
990 -97 21 -349 27 -450 10z m391 -121 c547 -96 944 -569 944 -1125 0 -633
-507 -1140 -1140 -1140 -849 0 -1399 893 -1019 1654 157 315 467 547 816 610
105 19 291 19 399 1z"/>
<path d="M1136 2390 c-432 -68 -789 -391 -903 -815 -24 -90 -26 -117 -26 -275
0 -158 2 -185 26 -275 103 -386 407 -689 795 -792 87 -24 115 -26 272 -26 158
0 185 2 275 26 386 103 689 407 792 795 24 87 26 115 26 272 0 158 -2 185 -26
275 -104 386 -411 692 -795 791 -109 29 -330 40 -436 24z m-39 -375 c163 -202
293 -433 334 -595 12 -47 23 -92 26 -100 2 -8 18 18 35 58 38 90 122 225 211
337 77 96 284 315 299 315 10 0 6 -31 -29 -190 -37 -172 -99 -350 -169 -487
-34 -68 -59 -123 -55 -123 3 0 34 9 68 20 93 29 225 50 353 56 l115 5 -70 -66
c-92 -87 -223 -179 -334 -235 l-89 -45 104 -54 c57 -30 104 -57 104 -62 0 -11
-123 -24 -230 -23 -102 1 -191 21 -248 56 l-34 21 33 -64 c55 -111 127 -214
189 -273 33 -32 60 -60 60 -64 0 -4 -11 -20 -24 -37 l-24 -29 -34 26 c-68 52
-187 239 -238 374 l-11 29 -24 -58 c-29 -71 -46 -98 -104 -161 -60 -65 -194
-171 -199 -158 -2 6 13 59 32 117 20 59 36 108 36 110 0 1 -27 -8 -61 -22 -85
-34 -254 -70 -389 -82 -179 -17 -172 -19 -120 35 68 70 245 199 336 246 l82
42 -80 23 c-177 51 -357 140 -562 277 l-121 81 60 5 c87 9 359 -6 472 -26 109
-18 245 -55 311 -84 l43 -19 -27 42 c-125 202 -201 504 -219 877 l-6 125 67
-70 c36 -38 96 -106 131 -150z"/>
</g>
</svg>
